<svg width="1280" height="420" viewBox="0 0 1280 420" fill="none" xmlns="http://www.w3.org/2000/svg">
  <defs>
    <linearGradient id="bg" x1="110" y1="24" x2="1170" y2="380" gradientUnits="userSpaceOnUse">
      <stop stop-color="#04080F"/>
      <stop offset="0.5" stop-color="#081120"/>
      <stop offset="1" stop-color="#0B1324"/>
    </linearGradient>
    <radialGradient id="glowLeft" cx="0" cy="0" r="1" gradientUnits="userSpaceOnUse" gradientTransform="translate(248 119) rotate(42.4558) scale(319.687 210.874)">
      <stop stop-color="#22C55E" stop-opacity="0.38"/>
      <stop offset="1" stop-color="#22C55E" stop-opacity="0"/>
    </radialGradient>
    <radialGradient id="glowRight" cx="0" cy="0" r="1" gradientUnits="userSpaceOnUse" gradientTransform="translate(1053 281) rotate(149.199) scale(377.357 235.355)">
      <stop stop-color="#38BDF8" stop-opacity="0.35"/>
      <stop offset="1" stop-color="#38BDF8" stop-opacity="0"/>
    </radialGradient>
    <linearGradient id="accent" x1="77" y1="226" x2="682" y2="287" gradientUnits="userSpaceOnUse">
      <stop stop-color="#E2E8F0"/>
      <stop offset="0.52" stop-color="#F8FAFC"/>
      <stop offset="1" stop-color="#86EFAC"/>
    </linearGradient>
    <linearGradient id="chip" x1="0" y1="0" x2="164" y2="28" gradientUnits="userSpaceOnUse">
      <stop stop-color="#052E16"/>
      <stop offset="1" stop-color="#0F3D23"/>
    </linearGradient>
  </defs>

  <rect width="1280" height="420" rx="30" fill="url(#bg)"/>
  <rect width="1280" height="420" rx="30" fill="url(#glowLeft)"/>
  <rect width="1280" height="420" rx="30" fill="url(#glowRight)"/>

  <g opacity="0.18">
    <path d="M0 89H1280" stroke="#334155"/>
    <path d="M0 145H1280" stroke="#334155"/>
    <path d="M0 201H1280" stroke="#334155"/>
    <path d="M0 257H1280" stroke="#334155"/>
    <path d="M0 313H1280" stroke="#334155"/>
    <path d="M0 369H1280" stroke="#334155"/>
    <path d="M116 0V420" stroke="#334155"/>
    <path d="M228 0V420" stroke="#334155"/>
    <path d="M340 0V420" stroke="#334155"/>
    <path d="M452 0V420" stroke="#334155"/>
    <path d="M564 0V420" stroke="#334155"/>
    <path d="M676 0V420" stroke="#334155"/>
    <path d="M788 0V420" stroke="#334155"/>
    <path d="M900 0V420" stroke="#334155"/>
    <path d="M1012 0V420" stroke="#334155"/>
    <path d="M1124 0V420" stroke="#334155"/>
  </g>

  <rect x="42" y="36" width="1196" height="348" rx="24" fill="#060B13" fill-opacity="0.72" stroke="#1E293B"/>

  <rect x="74" y="57" width="164" height="30" rx="15" fill="url(#chip)" stroke="#166534"/>
  <text x="96" y="77" fill="#D1FAE5" font-family="Segoe UI, Arial, sans-serif" font-size="15" font-weight="700">Docker • Nginx • TLS</text>

  <text x="74" y="131" fill="#93C5FD" font-family="Segoe UI, Arial, sans-serif" font-size="14" font-weight="700" letter-spacing="2.8">
    REVERSE PROXY LAB • STAGING-FIRST • MULTI-SITE
  </text>
  <text x="74" y="211" fill="#F8FAFC" font-family="Segoe UI, Arial, sans-serif" font-size="60" font-weight="800">
    Nginx comme
  </text>
  <text x="74" y="275" fill="url(#accent)" font-family="Segoe UI, Arial, sans-serif" font-size="60" font-weight="800">
    point d'entree web moderne
  </text>
  <text x="74" y="328" fill="#CBD5E1" font-family="Segoe UI, Arial, sans-serif" font-size="23">
    Reverse proxy, HTTPS, load balancing, routes internes,
  </text>
  <text x="74" y="358" fill="#CBD5E1" font-family="Segoe UI, Arial, sans-serif" font-size="23">
    staging Let's Encrypt et docs orientees apprentissage.
  </text>

  <g>
    <rect x="790" y="72" width="394" height="270" rx="24" fill="#07101C" stroke="#1E293B"/>
    <rect x="818" y="98" width="338" height="24" rx="12" fill="#0F172A" stroke="#1E293B"/>
    <circle cx="838" cy="110" r="5" fill="#F87171"/>
    <circle cx="858" cy="110" r="5" fill="#FBBF24"/>
    <circle cx="878" cy="110" r="5" fill="#34D399"/>
    <text x="900" y="116" fill="#94A3B8" font-family="Consolas, monospace" font-size="13">topology.map</text>

    <rect x="822" y="149" width="116" height="38" rx="12" fill="#0B1324" stroke="#14532D"/>
    <text x="854" y="173" fill="#DCFCE7" font-family="Segoe UI, Arial, sans-serif" font-size="17" font-weight="700">Client</text>

    <rect x="1010" y="149" width="122" height="38" rx="12" fill="#0B1324" stroke="#0F766E"/>
    <text x="1043" y="173" fill="#CCFBF1" font-family="Segoe UI, Arial, sans-serif" font-size="17" font-weight="700">Nginx</text>

    <path d="M939 168H1010" stroke="#38BDF8" stroke-width="4" stroke-linecap="round"/>

    <rect x="822" y="234" width="88" height="34" rx="10" fill="#0F172A" stroke="#1D4ED8"/>
    <text x="845" y="256" fill="#DBEAFE" font-family="Segoe UI, Arial, sans-serif" font-size="15" font-weight="700">app1</text>
    <rect x="926" y="234" width="88" height="34" rx="10" fill="#0F172A" stroke="#2563EB"/>
    <text x="949" y="256" fill="#DBEAFE" font-family="Segoe UI, Arial, sans-serif" font-size="15" font-weight="700">app2</text>
    <rect x="1030" y="234" width="88" height="34" rx="10" fill="#0F172A" stroke="#7C3AED"/>
    <text x="1058" y="256" fill="#EDE9FE" font-family="Segoe UI, Arial, sans-serif" font-size="15" font-weight="700">api</text>

    <path d="M1071 188V233" stroke="#22C55E" stroke-width="4" stroke-linecap="round"/>
    <path d="M970 188V233" stroke="#22C55E" stroke-width="4" stroke-linecap="round"/>
    <path d="M866 188V233" stroke="#22C55E" stroke-width="4" stroke-linecap="round"/>

    <rect x="822" y="290" width="149" height="24" rx="12" fill="#082F49"/>
    <text x="842" y="307" fill="#E0F2FE" font-family="Segoe UI, Arial, sans-serif" font-size="13" font-weight="700">80 -> 443 redirect</text>
    <rect x="983" y="290" width="151" height="24" rx="12" fill="#052E16"/>
    <text x="1006" y="307" fill="#D1FAE5" font-family="Segoe UI, Arial, sans-serif" font-size="13" font-weight="700">staging-ready ACME</text>
  </g>
</svg>
