<svg width="1280" height="840" viewBox="0 0 1280 840" fill="none" xmlns="http://www.w3.org/2000/svg">
  <defs>
    <linearGradient id="bg" x1="96" y1="70" x2="1188" y2="770" gradientUnits="userSpaceOnUse">
      <stop stop-color="#060B13"/>
      <stop offset="1" stop-color="#0B1324"/>
    </linearGradient>
    <linearGradient id="glow" x1="186" y1="164" x2="1086" y2="672" gradientUnits="userSpaceOnUse">
      <stop stop-color="#22C55E" stop-opacity="0.35"/>
      <stop offset="1" stop-color="#38BDF8" stop-opacity="0.28"/>
    </linearGradient>
    <linearGradient id="trace" x1="352" y1="386" x2="936" y2="564" gradientUnits="userSpaceOnUse">
      <stop stop-color="#22C55E"/>
      <stop offset="1" stop-color="#38BDF8"/>
    </linearGradient>
  </defs>

  <rect width="1280" height="840" rx="30" fill="#030712"/>
  <rect x="62" y="58" width="1156" height="724" rx="30" fill="url(#bg)" stroke="#1E293B"/>
  <rect x="62" y="58" width="1156" height="724" rx="30" fill="url(#glow)" fill-opacity="0.22"/>

  <g opacity="0.15">
    <path d="M62 155H1218" stroke="#334155"/>
    <path d="M62 260H1218" stroke="#334155"/>
    <path d="M62 365H1218" stroke="#334155"/>
    <path d="M62 470H1218" stroke="#334155"/>
    <path d="M62 575H1218" stroke="#334155"/>
    <path d="M62 680H1218" stroke="#334155"/>
    <path d="M196 58V782" stroke="#334155"/>
    <path d="M330 58V782" stroke="#334155"/>
    <path d="M464 58V782" stroke="#334155"/>
    <path d="M598 58V782" stroke="#334155"/>
    <path d="M732 58V782" stroke="#334155"/>
    <path d="M866 58V782" stroke="#334155"/>
    <path d="M1000 58V782" stroke="#334155"/>
  </g>

  <circle cx="108" cy="98" r="8" fill="#F87171"/>
  <circle cx="134" cy="98" r="8" fill="#FBBF24"/>
  <circle cx="160" cy="98" r="8" fill="#34D399"/>

  <text x="120" y="162" fill="#F8FAFC" font-family="Segoe UI, Arial, sans-serif" font-size="48" font-weight="800">
    Infrastructure Preview
  </text>
  <text x="120" y="200" fill="#94A3B8" font-family="Segoe UI, Arial, sans-serif" font-size="22">
    README orienté infra : routes, docs, staging ACME et architecture du reverse proxy
  </text>

  <g>
    <rect x="120" y="246" width="184" height="50" rx="14" fill="#052E16" stroke="#166534"/>
    <text x="151" y="278" fill="#DCFCE7" font-family="Segoe UI, Arial, sans-serif" font-size="21" font-weight="700">Reverse Proxy</text>
    <rect x="322" y="246" width="166" height="50" rx="14" fill="#082F49" stroke="#0369A1"/>
    <text x="357" y="278" fill="#E0F2FE" font-family="Segoe UI, Arial, sans-serif" font-size="21" font-weight="700">TLS / HTTPS</text>
    <rect x="506" y="246" width="194" height="50" rx="14" fill="#172554" stroke="#1D4ED8"/>
    <text x="538" y="278" fill="#DBEAFE" font-family="Segoe UI, Arial, sans-serif" font-size="21" font-weight="700">Load Balancing</text>
    <rect x="718" y="246" width="214" height="50" rx="14" fill="#312E81" stroke="#6366F1"/>
    <text x="754" y="278" fill="#E0E7FF" font-family="Segoe UI, Arial, sans-serif" font-size="21" font-weight="700">API Routing</text>
    <rect x="950" y="246" width="164" height="50" rx="14" fill="#3F1D63" stroke="#7C3AED"/>
    <text x="972" y="278" fill="#F3E8FF" font-family="Segoe UI, Arial, sans-serif" font-size="21" font-weight="700">ACME Staging</text>
  </g>

  <g>
    <rect x="122" y="364" width="208" height="112" rx="22" fill="#081120" stroke="#1E293B"/>
    <text x="174" y="413" fill="#F8FAFC" font-family="Segoe UI, Arial, sans-serif" font-size="31" font-weight="800">Client</text>
    <text x="161" y="446" fill="#94A3B8" font-family="Segoe UI, Arial, sans-serif" font-size="20">browser • curl • tests</text>

    <rect x="456" y="336" width="372" height="168" rx="28" fill="#07101C" stroke="#14532D"/>
    <text x="498" y="393" fill="#F8FAFC" font-family="Segoe UI, Arial, sans-serif" font-size="36" font-weight="800">Nginx Gateway</text>
    <text x="498" y="429" fill="#86EFAC" font-family="Segoe UI, Arial, sans-serif" font-size="20">80 → 443 • /app • /api • /admin</text>
    <text x="498" y="458" fill="#67E8F9" font-family="Segoe UI, Arial, sans-serif" font-size="20">server_name • snippets • TLS • static.local</text>

    <rect x="948" y="364" width="196" height="112" rx="22" fill="#081120" stroke="#1E293B"/>
    <text x="1010" y="413" fill="#F8FAFC" font-family="Segoe UI, Arial, sans-serif" font-size="31" font-weight="800">API</text>
    <text x="986" y="446" fill="#94A3B8" font-family="Segoe UI, Arial, sans-serif" font-size="20">echo-server interne</text>
  </g>

  <g>
    <rect x="210" y="582" width="152" height="82" rx="18" fill="#0B1324" stroke="#1D4ED8"/>
    <text x="256" y="632" fill="#DBEAFE" font-family="Segoe UI, Arial, sans-serif" font-size="28" font-weight="800">app1</text>

    <rect x="394" y="582" width="152" height="82" rx="18" fill="#0B1324" stroke="#2563EB"/>
    <text x="440" y="632" fill="#DBEAFE" font-family="Segoe UI, Arial, sans-serif" font-size="28" font-weight="800">app2</text>

    <rect x="578" y="582" width="208" height="82" rx="18" fill="#0B1324" stroke="#0F766E"/>
    <text x="611" y="632" fill="#CCFBF1" font-family="Segoe UI, Arial, sans-serif" font-size="28" font-weight="800">site statique</text>

    <rect x="818" y="582" width="234" height="82" rx="18" fill="#0B1324" stroke="#7C3AED"/>
    <text x="854" y="632" fill="#EDE9FE" font-family="Segoe UI, Arial, sans-serif" font-size="28" font-weight="800">Let's Encrypt</text>
  </g>

  <path d="M330 420H456" stroke="url(#trace)" stroke-width="6" stroke-linecap="round"/>
  <path d="M828 420H948" stroke="url(#trace)" stroke-width="6" stroke-linecap="round"/>
  <path d="M532 504V564" stroke="url(#trace)" stroke-width="6" stroke-linecap="round"/>
  <path d="M642 504V564" stroke="url(#trace)" stroke-width="6" stroke-linecap="round"/>
  <path d="M752 504V564" stroke="url(#trace)" stroke-width="6" stroke-linecap="round"/>
  <path d="M828 504L908 564" stroke="url(#trace)" stroke-width="6" stroke-linecap="round"/>

  <text x="120" y="728" fill="#CBD5E1" font-family="Segoe UI, Arial, sans-serif" font-size="22">
    Un README pensé comme une fiche projet infra : rapide à lire, visuel, et directement actionnable.
  </text>
</svg>
