<svg width="1280" height="840" viewBox="0 0 1280 840" fill="none" xmlns="http://www.w3.org/2000/svg">
  <defs>
    <linearGradient id="panel" x1="160" y1="120" x2="1120" y2="760" gradientUnits="userSpaceOnUse">
      <stop stop-color="#0F172A"/>
      <stop offset="1" stop-color="#111827"/>
    </linearGradient>
    <linearGradient id="line" x1="230" y1="180" x2="1040" y2="620" gradientUnits="userSpaceOnUse">
      <stop stop-color="#22C55E"/>
      <stop offset="1" stop-color="#38BDF8"/>
    </linearGradient>
  </defs>

  <rect width="1280" height="840" rx="28" fill="#060B13"/>
  <rect x="78" y="72" width="1124" height="696" rx="28" fill="url(#panel)" stroke="#1F2937"/>
  <circle cx="126" cy="114" r="8" fill="#F87171"/>
  <circle cx="152" cy="114" r="8" fill="#FBBF24"/>
  <circle cx="178" cy="114" r="8" fill="#34D399"/>

  <text x="120" y="168" fill="#F8FAFC" font-family="Segoe UI, Arial, sans-serif" font-size="44" font-weight="800">
    Reverse Proxy Playground
  </text>
  <text x="120" y="206" fill="#94A3B8" font-family="Segoe UI, Arial, sans-serif" font-size="22">
    Vue README : usages principaux, topologie du lab et routes disponibles
  </text>

  <g>
    <rect x="120" y="254" width="188" height="52" rx="14" fill="#052E16" stroke="#166534"/>
    <text x="152" y="287" fill="#DCFCE7" font-family="Segoe UI, Arial, sans-serif" font-size="22" font-weight="700">HTTPS / TLS</text>
    <rect x="328" y="254" width="210" height="52" rx="14" fill="#0C4A6E" stroke="#0369A1"/>
    <text x="358" y="287" fill="#E0F2FE" font-family="Segoe UI, Arial, sans-serif" font-size="22" font-weight="700">Load Balancing</text>
    <rect x="558" y="254" width="230" height="52" rx="14" fill="#172554" stroke="#1D4ED8"/>
    <text x="588" y="287" fill="#DBEAFE" font-family="Segoe UI, Arial, sans-serif" font-size="22" font-weight="700">Reverse Proxy API</text>
    <rect x="808" y="254" width="268" height="52" rx="14" fill="#3F1D63" stroke="#7C3AED"/>
    <text x="840" y="287" fill="#EDE9FE" font-family="Segoe UI, Arial, sans-serif" font-size="22" font-weight="700">Let's Encrypt Staging</text>
  </g>

  <g>
    <rect x="120" y="360" width="230" height="94" rx="20" fill="#0B1220" stroke="#1E293B"/>
    <text x="162" y="400" fill="#F8FAFC" font-family="Segoe UI, Arial, sans-serif" font-size="30" font-weight="800">Client</text>
    <text x="162" y="432" fill="#94A3B8" font-family="Segoe UI, Arial, sans-serif" font-size="20">browser • curl • tests</text>

    <rect x="446" y="340" width="388" height="136" rx="24" fill="#0B1220" stroke="#14532D"/>
    <text x="486" y="390" fill="#F8FAFC" font-family="Segoe UI, Arial, sans-serif" font-size="34" font-weight="800">Nginx Reverse Proxy</text>
    <text x="486" y="424" fill="#86EFAC" font-family="Segoe UI, Arial, sans-serif" font-size="20">80 → 443 • /app • /api • /admin • static.local</text>

    <rect x="930" y="360" width="170" height="94" rx="20" fill="#0B1220" stroke="#1E293B"/>
    <text x="974" y="400" fill="#F8FAFC" font-family="Segoe UI, Arial, sans-serif" font-size="30" font-weight="800">API</text>
    <text x="962" y="432" fill="#94A3B8" font-family="Segoe UI, Arial, sans-serif" font-size="20">echo-server</text>
  </g>

  <g>
    <rect x="258" y="560" width="146" height="78" rx="18" fill="#10233E" stroke="#1D4ED8"/>
    <text x="302" y="607" fill="#DBEAFE" font-family="Segoe UI, Arial, sans-serif" font-size="28" font-weight="800">app1</text>
    <rect x="438" y="560" width="146" height="78" rx="18" fill="#10233E" stroke="#2563EB"/>
    <text x="482" y="607" fill="#DBEAFE" font-family="Segoe UI, Arial, sans-serif" font-size="28" font-weight="800">app2</text>
    <rect x="618" y="560" width="220" height="78" rx="18" fill="#112031" stroke="#0F766E"/>
    <text x="651" y="607" fill="#CCFBF1" font-family="Segoe UI, Arial, sans-serif" font-size="28" font-weight="800">site statique</text>
  </g>

  <path d="M350 406H430" stroke="url(#line)" stroke-width="6" stroke-linecap="round"/>
  <path d="M834 406H930" stroke="url(#line)" stroke-width="6" stroke-linecap="round"/>
  <path d="M548 476V536" stroke="url(#line)" stroke-width="6" stroke-linecap="round"/>
  <path d="M640 476V536" stroke="url(#line)" stroke-width="6" stroke-linecap="round"/>
  <path d="M732 476V536" stroke="url(#line)" stroke-width="6" stroke-linecap="round"/>

  <text x="120" y="708" fill="#CBD5E1" font-family="Segoe UI, Arial, sans-serif" font-size="22">
    Le README met en avant la topologie, les routes, la doc de cours et le workflow staging → prod.
  </text>
</svg>
